<?xml version="1.0" encoding="UTF-8"?><svg id="Layer_1" xmlns="http://www.w3.org/2000/svg" viewBox="0 0 1920 1080"><rect x="-1919.583" y="-4.249" width="1920" height="1088.498" style="fill:#ecff5f;"/><rect width="1920" height="1080" style="fill:#ecff5f;"/><path d="m1086.643,471.539c16.31-36.082,41.734-63.468,76.237-82.133,34.524-18.685,75.152-26.872,121.907-24.56,46.758,2.303,96.182,15.228,148.313,38.793l-26.098,57.735c-60.94-27.547-115.801-38.12-164.57-31.663-48.782,6.42-81.868,28.898-99.263,67.38l-56.527-25.552Z" style="fill:#231f20;"/><path d="m609.027,602.108c39.598,0,75.024-11.886,106.244-35.639,31.247-23.762,55.442-57.412,72.594-100.969,17.161-43.556,25.742-93.916,25.742-151.126h-63.36c0,66.877-12.963,121.223-38.935,163.003-25.944,41.807-60.055,62.697-102.285,62.697v62.034Z" style="fill:#231f20;"/><rect x="0" y="544.285" width="591.191" height="63.355" style="fill:#231f20;"/><rect x="1680.241" y="546.543" width="239.759" height="58.839" style="fill:#231f20;"/></svg>