<?xml version="1.0" encoding="UTF-8"?><svg id="Layer_1" xmlns="http://www.w3.org/2000/svg" viewBox="0 0 283.465 283.465"><path d="m198.432,199.132c0-10.265-2.57-19.829-7.699-28.7-5.136-8.864-12.136-15.925-21-21.175-8.871-5.25-18.551-7.875-29.051-7.875-10.27.235-19.545,2.976-27.824,8.226-8.285,5.25-14.7,12.25-19.25,21-4.551,8.75-6.825,18.26-6.825,28.524h16.45c0-11.665,3.5-21.465,10.5-29.399,7-7.93,15.979-11.9,26.949-11.9,11.9,0,21.875,3.971,29.926,11.9,8.05,7.935,11.84,17.734,11.375,29.399h16.449Z" style="fill:#231f20;"/><path d="m111.983,92.033c-8.171,5.135-14.646,12.075-19.426,20.825-4.785,8.75-7.295,18.495-7.524,29.225h16.8c-.235-11.665,3.205-21.404,10.325-29.225,6.543-7.188,14.822-11.161,24.823-11.936v-16.524c-9.21.408-17.543,2.951-24.998,7.635Z"/><path d="m197.382,141.733c0-10.5-2.335-20.18-7-29.05-4.67-8.865-11.146-15.805-19.425-20.825-7.373-4.463-15.533-6.937-24.473-7.429v16.42c9.675.529,17.661,4.291,23.948,11.309,7,7.82,10.266,17.675,9.801,29.575h17.149Z"/></svg>