<?xml version="1.0" encoding="UTF-8"?><svg id="Layer_1" xmlns="http://www.w3.org/2000/svg" viewBox="0 0 283.465 283.465"><path d="m84.157,83.539c0,10.271,2.564,19.836,7.701,28.7,5.129,8.87,12.129,15.985,21,21.351,8.863,5.37,18.549,8.05,29.049,8.05,10.5-.229,20.125-3.03,28.875-8.4,8.75-5.364,15.689-12.364,20.826-21,5.129-8.63,7.699-18.079,7.699-28.35l-16.449-.351c0,11.436-4.025,21.176-12.076,29.226-8.049,8.05-17.674,12.195-28.875,12.425-11.9,0-21.875-3.965-29.924-11.9-8.051-7.93-11.846-17.729-11.375-29.399l-16.451-.351Z" style="fill:#231f20;"/><polygon points="169.503 180.407 169.503 197.208 92.557 197.557 92.557 180.758 169.503 180.407" style="fill:#231f20;"/><polygon points="179.007 133.508 195.458 133.857 195.458 197.557 179.007 197.208 179.007 133.508" style="fill:#231f20;"/></svg>